<svg xmlns="http://www.w3.org/2000/svg" width="932.2" height="512.3" viewBox="0 0 932.2 512.3">
  <g fill="#111111">
    <path transform="translate(7.29 155.50)" d="M43.28 -137.50V0.00H10.71V-137.50Z M91.52 -58.88V0.00H59.31V-103.17H89.58L90.22 -77.15H88.84Q92.62 -89.42 100.70 -96.95Q108.77 -104.47 122.43 -104.47Q133.23 -104.47 141.26 -99.67Q149.29 -94.87 153.72 -86.10Q158.15 -77.33 158.15 -65.71V0.00H125.94V-59.43Q125.94 -68.11 121.51 -73.04Q117.08 -77.98 109.14 -77.98Q103.97 -77.98 99.96 -75.72Q95.94 -73.46 93.73 -69.21Q91.52 -64.97 91.52 -58.88Z M235.36 -103.17V-79.27H165.31V-103.17ZM182.66 0.00V-108.71Q182.66 -120.52 187.09 -128.37Q191.52 -136.21 199.46 -140.09Q207.39 -143.96 217.73 -143.96Q224.56 -143.96 230.60 -142.90Q236.65 -141.84 239.42 -141.01L234.25 -117.48Q232.40 -117.94 229.91 -118.36Q227.42 -118.77 224.93 -118.77Q219.21 -118.77 216.95 -116.14Q214.68 -113.51 214.68 -108.99V0.00Z M278.42 -137.50V0.00H246.21V-137.50Z M294.45 0.00V-103.17H326.65V0.00ZM310.50 -115.26Q303.68 -115.26 298.78 -119.83Q293.89 -124.40 293.89 -130.77Q293.89 -137.23 298.78 -141.75Q303.68 -146.27 310.50 -146.27Q317.43 -146.27 322.32 -141.80Q327.21 -137.32 327.21 -130.77Q327.21 -124.31 322.32 -119.79Q317.43 -115.26 310.50 -115.26Z M390.21 40.79Q376.73 40.79 366.67 37.38Q356.62 33.96 350.39 27.87Q344.16 21.78 342.31 13.75L370.27 8.03Q371.20 10.80 373.69 13.15Q376.18 15.50 380.24 16.93Q384.30 18.36 390.02 18.36Q399.90 18.36 405.20 13.94Q410.51 9.51 410.51 0.28V-18.00H408.02Q406.17 -13.38 402.53 -9.60Q398.88 -5.81 393.30 -3.60Q387.72 -1.38 380.06 -1.38Q368.71 -1.38 359.34 -6.69Q349.97 -12.00 344.34 -23.12Q338.71 -34.24 338.71 -51.59Q338.71 -69.68 344.53 -81.40Q350.34 -93.12 359.71 -98.79Q369.07 -104.47 379.96 -104.47Q388.18 -104.47 394.04 -101.70Q399.90 -98.93 403.73 -94.55Q407.56 -90.16 409.50 -85.46H410.42V-103.17H442.26V-2.31Q442.26 11.90 435.66 21.50Q429.06 31.10 417.34 35.95Q405.62 40.79 390.21 40.79ZM391.04 -25.01Q397.22 -25.01 401.56 -28.15Q405.90 -31.28 408.20 -37.33Q410.51 -43.37 410.51 -51.68Q410.51 -60.17 408.20 -66.35Q405.90 -72.54 401.60 -75.90Q397.31 -79.27 391.04 -79.27Q384.85 -79.27 380.56 -75.81Q376.27 -72.35 374.06 -66.17Q371.84 -59.99 371.84 -51.68Q371.84 -43.37 374.06 -37.38Q376.27 -31.38 380.56 -28.19Q384.85 -25.01 391.04 -25.01Z M490.40 -58.88V0.00H458.19V-137.50H489.75V-77.15H487.72Q491.50 -89.42 499.58 -96.95Q507.65 -104.47 521.31 -104.47Q532.11 -104.47 540.14 -99.67Q548.17 -94.87 552.60 -86.10Q557.03 -77.33 557.03 -65.71V0.00H524.82V-59.43Q524.82 -68.11 520.39 -73.04Q515.96 -77.98 508.02 -77.98Q502.86 -77.98 498.84 -75.72Q494.83 -73.46 492.61 -69.21Q490.40 -64.97 490.40 -58.88Z M628.61 -103.17V-79.27H564.19V-103.17ZM577.85 -127.72H610.06V-31.56Q610.06 -27.50 612.00 -25.52Q613.94 -23.53 618.27 -23.53Q619.93 -23.53 622.93 -23.90Q625.93 -24.27 627.22 -24.64L631.38 -1.20Q625.93 0.37 620.86 0.92Q615.78 1.48 611.26 1.48Q594.83 1.48 586.34 -6.23Q577.85 -13.94 577.85 -28.70Z"/>
    <path transform="translate(1.01 429.56)" d="M97.27 0.00H39.26V-44.24H95.07Q113.82 -44.24 126.78 -50.54Q139.75 -56.84 146.34 -71.19Q152.93 -85.55 152.93 -109.13Q152.93 -132.71 146.19 -147.00Q139.45 -161.28 126.49 -167.65Q113.53 -174.02 94.34 -174.02H38.23V-218.26H97.27Q130.52 -218.26 154.54 -205.15Q178.56 -192.04 191.60 -167.58Q204.64 -143.12 204.64 -109.13Q204.64 -75.15 191.67 -50.61Q178.71 -26.07 154.61 -13.04Q130.52 0.00 97.27 0.00ZM68.70 -218.26V0.00H16.99V-218.26Z M225.24 0.00V-163.77H276.37V0.00ZM250.73 -182.96Q239.89 -182.96 232.13 -190.21Q224.36 -197.46 224.36 -207.57Q224.36 -217.82 232.13 -225.00Q239.89 -232.18 250.73 -232.18Q261.72 -232.18 269.48 -225.07Q277.24 -217.97 277.24 -207.57Q277.24 -197.31 269.48 -190.14Q261.72 -182.96 250.73 -182.96Z M377.24 64.75Q355.86 64.75 339.89 59.33Q323.92 53.91 314.03 44.24Q304.15 34.57 301.22 21.83L345.60 12.74Q347.07 17.14 351.02 20.87Q354.98 24.61 361.42 26.88Q367.87 29.15 376.95 29.15Q392.62 29.15 401.05 22.12Q409.47 15.09 409.47 0.44V-28.56H405.51Q402.58 -21.24 396.80 -15.23Q391.01 -9.23 382.15 -5.71Q373.29 -2.20 361.13 -2.20Q343.11 -2.20 328.24 -10.62Q313.38 -19.04 304.44 -36.69Q295.50 -54.35 295.50 -81.88Q295.50 -110.60 304.73 -129.20Q313.96 -147.80 328.83 -156.81Q343.70 -165.82 360.98 -165.82Q374.02 -165.82 383.32 -161.43Q392.62 -157.03 398.70 -150.07Q404.78 -143.12 407.86 -135.64H409.32V-163.77H459.86V-3.66Q459.86 18.90 449.39 34.13Q438.91 49.37 420.31 57.06Q401.71 64.75 377.24 64.75ZM378.56 -39.70Q388.38 -39.70 395.26 -44.68Q402.15 -49.66 405.81 -59.25Q409.47 -68.85 409.47 -82.03Q409.47 -95.51 405.81 -105.32Q402.15 -115.14 395.33 -120.48Q388.52 -125.83 378.56 -125.83Q368.75 -125.83 361.94 -120.34Q355.12 -114.84 351.61 -105.03Q348.09 -95.21 348.09 -82.03Q348.09 -68.85 351.61 -59.33Q355.12 -49.80 361.94 -44.75Q368.75 -39.70 378.56 -39.70Z M561.47 3.08Q535.84 3.08 517.23 -7.10Q498.63 -17.29 488.74 -36.18Q478.85 -55.08 478.85 -81.30Q478.85 -106.49 488.74 -125.54Q498.63 -144.58 516.79 -155.20Q534.96 -165.82 559.57 -165.82Q576.85 -165.82 591.28 -160.40Q605.71 -154.98 616.33 -144.36Q626.95 -133.74 632.73 -118.21Q638.52 -102.69 638.52 -82.32V-69.43H497.02V-99.17H614.20L590.33 -92.14Q590.33 -103.56 586.88 -111.77Q583.44 -119.97 576.70 -124.37Q569.97 -128.76 560.01 -128.76Q550.04 -128.76 543.16 -124.29Q536.27 -119.82 532.69 -111.84Q529.10 -103.86 529.10 -93.16V-71.78Q529.10 -59.18 533.27 -50.76Q537.45 -42.33 544.92 -38.16Q552.39 -33.98 562.35 -33.98Q569.23 -33.98 574.87 -35.89Q580.51 -37.79 584.54 -41.60Q588.57 -45.41 590.62 -50.83L636.18 -43.36Q632.08 -29.30 622.04 -18.82Q612.01 -8.35 596.70 -2.64Q581.39 3.08 561.47 3.08Z M725.92 3.08Q704.97 3.08 688.86 -2.86Q672.75 -8.79 662.64 -20.00Q652.53 -31.20 649.60 -46.88L697.06 -54.35Q700.14 -43.65 707.46 -38.23Q714.79 -32.81 727.83 -32.81Q738.52 -32.81 744.67 -36.55Q750.82 -40.28 750.82 -46.44Q750.82 -52.15 745.92 -55.59Q741.01 -59.03 730.76 -61.08L702.19 -66.65Q677.87 -71.34 665.79 -83.13Q653.70 -94.92 653.70 -113.82Q653.70 -130.22 662.57 -141.80Q671.43 -153.37 687.62 -159.59Q703.80 -165.82 725.77 -165.82Q746.28 -165.82 761.44 -160.33Q776.61 -154.83 785.91 -144.65Q795.21 -134.47 797.99 -120.41L752.87 -113.23Q750.68 -121.44 743.87 -126.05Q737.05 -130.66 726.65 -130.66Q717.43 -130.66 711.05 -126.93Q704.68 -123.19 704.68 -116.89Q704.68 -111.91 708.64 -108.18Q712.59 -104.44 723.14 -102.39L754.49 -96.53Q778.80 -91.85 790.74 -81.01Q802.68 -70.17 802.68 -52.29Q802.68 -35.45 792.79 -23.00Q782.90 -10.55 765.62 -3.74Q748.33 3.08 725.92 3.08Z M908.83 -163.77V-125.83H806.58V-163.77ZM828.26 -202.73H879.39V-50.10Q879.39 -43.65 882.46 -40.50Q885.54 -37.35 892.42 -37.35Q895.06 -37.35 899.82 -37.94Q904.58 -38.53 906.63 -39.11L913.22 -1.90Q904.58 0.59 896.53 1.46Q888.47 2.34 881.29 2.34Q855.22 2.34 841.74 -9.89Q828.26 -22.12 828.26 -45.56Z"/>
  </g>
  <path fill="#E1251B" d="M 678.80 20.75 L 700.77 20.75 L 685.26 85.38 L 649.07 85.38 Z"/>
</svg>
